%
M48
M72
T01C0.0118
T02C0.0236
T03C0.0240
T04C0.0276
T05C0.0320
T06C0.0350
T07C0.0354
T08C0.0394
T09C0.0400
T10C0.0591
T11C0.0906
T12C0.1102
T13C0.1299
T14C0.1300
%
T01
X12186Y16146
X2974Y18941
T02
X21242Y16185
X24352Y17445
T03
X24352Y18414
X25352Y19414
X23352Y19414
T04
X34234Y10240
X34234Y8272
X35021Y7878
X34234Y7484
X35021Y7091
X34234Y6697
X35021Y6303
X34234Y5910
X35021Y5516
X34234Y3744
T05
X31820Y2209
X30820Y2209
X30100Y2197
X30820Y1185
X31820Y1185
X32879Y1225
X34879Y1225
X28368Y1197
X27647Y1185
X26647Y1185
X25848Y1091
X26647Y2209
X27647Y2209
X25848Y3091
X24352Y3142
X24352Y2142
X23206Y2185
X22206Y2185
X21206Y2185
X20206Y2185
X18364Y1457
X17364Y1457
X16364Y1457
X15364Y1457
X14364Y1457
X13364Y1457
X12364Y1457
X11364Y1457
X9155Y1158
X8171Y1158
X7186Y1158
X6202Y1158
X6202Y2158
X7186Y2158
X8171Y2158
X9155Y2158
X10336Y3441
X10336Y4441
X11364Y4457
X12364Y4457
X13364Y4457
X14364Y4457
X15364Y4457
X16364Y4457
X17364Y4457
X18364Y4457
X20206Y5185
X19446Y5713
X19446Y6500
X20214Y6418
X21214Y6418
X22214Y6418
X23214Y6418
X24112Y6366
X24112Y5366
X23206Y5185
X22206Y5185
X21206Y5185
X17446Y5713
X16714Y5764
X15954Y6185
X16714Y6764
X17446Y6500
X15155Y7091
X14954Y6185
X14143Y6185
X13143Y6185
X12230Y6457
X11230Y6457
X10230Y6457
X9230Y6457
X13155Y7091
X12230Y9457
X11230Y9457
X10230Y9457
X9230Y9457
X11238Y10866
X12238Y10866
X13238Y10866
X14238Y10866
X15238Y10866
X16238Y10866
X17238Y10866
X18238Y10866
X19238Y10866
X20238Y10866
X21238Y10866
X22238Y10866
X23238Y10866
X24238Y10866
X25809Y11291
X26596Y11319
X27446Y11343
X28446Y10295
X29509Y10287
X29509Y9287
X28446Y9295
X28446Y8295
X29864Y7236
X29864Y6236
X31910Y6288
X31910Y8288
X30966Y8256
X30966Y9256
X30966Y10256
X29446Y11343
X30179Y12142
X30179Y13142
X28923Y13898
X27923Y13898
X26923Y13898
X25923Y13898
X24238Y13866
X23238Y13866
X22238Y13866
X21238Y13866
X20238Y13866
X19238Y13866
X18238Y13866
X17238Y13866
X16238Y13866
X15238Y13866
X14238Y13866
X13238Y13866
X12238Y13866
X11238Y13866
X10206Y14256
X9206Y14256
X9206Y13272
X10206Y13272
X10206Y12288
X9206Y12288
X9206Y11303
X10206Y11303
X10179Y15134
X11242Y15134
X12238Y15122
X13238Y15122
X15218Y15134
X16242Y15134
X16242Y16134
X15218Y16134
X17120Y16146
X18120Y16146
X19230Y14992
X21230Y14992
X22997Y15398
X22997Y16185
X24997Y16185
X24997Y15398
X25923Y16898
X26923Y16898
X27923Y16898
X28923Y16898
X30179Y15583
X30179Y14583
X25809Y10291
X26596Y9319
X26360Y8103
X26360Y7103
X24273Y8717
X23214Y9418
X22214Y9418
X21214Y9418
X20214Y9418
X24273Y9717
X26871Y5347
X26871Y4347
X36805Y11697
X37805Y11697
X31938Y18902
X30938Y18902
X33801Y19634
X34667Y19634
X34667Y21634
X33801Y21634
X24852Y21540
X23852Y21540
X11242Y16134
X10179Y16134
T06
X28880Y4999
X28880Y4099
X28880Y3199
X31202Y3199
X31202Y4099
X31202Y4999
T07
X34057Y14532
X35041Y14532
X35041Y15358
X35041Y16382
X35041Y17209
X34076Y17209
T08
X28899Y19689
X27127Y19689
T09
X26934Y12642
X28934Y12642
X33470Y11697
X35470Y11697
X34879Y2642
X32879Y2642
X18427Y8390
X17427Y8390
X16427Y8390
X15427Y8390
X14427Y8390
X13427Y8390
X7686Y8452
X6686Y7912
X7686Y7372
X6686Y8992
X7686Y9532
X6686Y10072
X7686Y10612
X6686Y11152
X7686Y11692
T10
X26832Y21067
X29194Y21067
X28899Y18114
X27127Y18114
T11
X36222Y18528
X36537Y15870
X36222Y13193
T12
X35809Y9847
X35809Y4138
X19391Y16756
X19391Y18256
X17391Y17559
X13486Y18256
X11486Y17559
X13486Y16756
X7580Y16756
X5580Y17559
X7580Y18256
X7580Y20756
X6080Y20756
X9080Y20756
X11986Y20756
X13486Y20756
X14986Y20756
X17891Y20756
X19391Y20756
X20891Y20756
T13
X3997Y2012
X3997Y20831
X36990Y20831
X36990Y2012
T14
X7186Y4602
X7186Y14462
M30
